<?xml version="1.0" encoding="UTF-8"?>
<!DOCTYPE svg PUBLIC "-//W3C//DTD SVG 1.1//EN" "http://www.w3.org/Graphics/SVG/1.1/DTD/svg11.dtd">
<svg version="1.2" width="203.2mm" height="152.4mm" viewBox="0 0 20320 15240" preserveAspectRatio="xMidYMid" fill-rule="evenodd" stroke-width="28.222" stroke-linejoin="round" xmlns="http://www.w3.org/2000/svg" xmlns:ooo="http://xml.openoffice.org/svg/export" xmlns:xlink="http://www.w3.org/1999/xlink" xmlns:presentation="http://sun.com/xmlns/staroffice/presentation" xmlns:smil="http://www.w3.org/2001/SMIL20/" xmlns:anim="urn:oasis:names:tc:opendocument:xmlns:animation:1.0" xmlns:svg="urn:oasis:names:tc:opendocument:xmlns:svg-compatible:1.0" xml:space="preserve">
 <defs class="ClipPathGroup">
  <clipPath id="presentation_clip_path" clipPathUnits="userSpaceOnUse">
   <rect x="0" y="0" width="20320" height="15240"/>
  </clipPath>
  <clipPath id="presentation_clip_path_shrink" clipPathUnits="userSpaceOnUse">
   <rect x="20" y="15" width="20280" height="15210"/>
  </clipPath>
 </defs>
 <defs class="TextShapeIndex">
  <g ooo:slide="id1" ooo:id-list="id3 id4 id5 id6 id7 id8 id9 id10 id11 id12 id13 id14 id15 id16 id17 id18 id19 id20 id21 id22 id23 id24 id25 id26 id27 id28 id29 id30 id31 id32 id33 id34 id35 id36 id37 id38 id39 id40 id41"/>
 </defs>
 <defs class="EmbeddedBulletChars">
  <g id="bullet-char-template-57356" transform="scale(0.00048828125,-0.00048828125)">
   <path d="M 580,1141 L 1163,571 580,0 -4,571 580,1141 Z"/>
  </g>
  <g id="bullet-char-template-57354" transform="scale(0.00048828125,-0.00048828125)">
   <path d="M 8,1128 L 1137,1128 1137,0 8,0 8,1128 Z"/>
  </g>
  <g id="bullet-char-template-10146" transform="scale(0.00048828125,-0.00048828125)">
   <path d="M 174,0 L 602,739 174,1481 1456,739 174,0 Z M 1358,739 L 309,1346 659,739 1358,739 Z"/>
  </g>
  <g id="bullet-char-template-10132" transform="scale(0.00048828125,-0.00048828125)">
   <path d="M 2015,739 L 1276,0 717,0 1260,543 174,543 174,936 1260,936 717,1481 1274,1481 2015,739 Z"/>
  </g>
  <g id="bullet-char-template-10007" transform="scale(0.00048828125,-0.00048828125)">
   <path d="M 0,-2 C -7,14 -16,27 -25,37 L 356,567 C 262,823 215,952 215,954 215,979 228,992 255,992 264,992 276,990 289,987 310,991 331,999 354,1012 L 381,999 492,748 772,1049 836,1024 860,1049 C 881,1039 901,1025 922,1006 886,937 835,863 770,784 769,783 710,716 594,584 L 774,223 C 774,196 753,168 711,139 L 727,119 C 717,90 699,76 672,76 641,76 570,178 457,381 L 164,-76 C 142,-110 111,-127 72,-127 30,-127 9,-110 8,-76 1,-67 -2,-52 -2,-32 -2,-23 -1,-13 0,-2 Z"/>
  </g>
  <g id="bullet-char-template-10004" transform="scale(0.00048828125,-0.00048828125)">
   <path d="M 285,-33 C 182,-33 111,30 74,156 52,228 41,333 41,471 41,549 55,616 82,672 116,743 169,778 240,778 293,778 328,747 346,684 L 369,508 C 377,444 397,411 428,410 L 1163,1116 C 1174,1127 1196,1133 1229,1133 1271,1133 1292,1118 1292,1087 L 1292,965 C 1292,929 1282,901 1262,881 L 442,47 C 390,-6 338,-33 285,-33 Z"/>
  </g>
  <g id="bullet-char-template-9679" transform="scale(0.00048828125,-0.00048828125)">
   <path d="M 813,0 C 632,0 489,54 383,161 276,268 223,411 223,592 223,773 276,916 383,1023 489,1130 632,1184 813,1184 992,1184 1136,1130 1245,1023 1353,916 1407,772 1407,592 1407,412 1353,268 1245,161 1136,54 992,0 813,0 Z"/>
  </g>
  <g id="bullet-char-template-8226" transform="scale(0.00048828125,-0.00048828125)">
   <path d="M 346,457 C 273,457 209,483 155,535 101,586 74,649 74,723 74,796 101,859 155,911 209,963 273,989 346,989 419,989 480,963 531,910 582,859 608,796 608,723 608,648 583,586 532,535 482,483 420,457 346,457 Z"/>
  </g>
  <g id="bullet-char-template-8211" transform="scale(0.00048828125,-0.00048828125)">
   <path d="M -4,459 L 1135,459 1135,606 -4,606 -4,459 Z"/>
  </g>
  <g id="bullet-char-template-61548" transform="scale(0.00048828125,-0.00048828125)">
   <path d="M 173,740 C 173,903 231,1043 346,1159 462,1274 601,1332 765,1332 928,1332 1067,1274 1183,1159 1299,1043 1357,903 1357,740 1357,577 1299,437 1183,322 1067,206 928,148 765,148 601,148 462,206 346,322 231,437 173,577 173,740 Z"/>
  </g>
 </defs>
 <g>
  <g id="id2" class="Master_Slide">
   <g id="bg-id2" class="Background"/>
   <g id="bo-id2" class="BackgroundObjects"/>
  </g>
 </g>
 <g class="SlideGroup">
  <g>
   <g id="container-id1">
    <g id="id1" class="Slide" clip-path="url(#presentation_clip_path)">
     <g class="Page">
      <g class="com.sun.star.drawing.CustomShape">
       <g id="id3">
        <rect class="BoundingBox" stroke="none" fill="none" x="7170" y="4257" width="1645" height="1635"/>
        <path fill="rgb(255,128,0)" stroke="none" d="M 8813,5074 C 8813,5217 8775,5358 8703,5482 8631,5606 8527,5709 8403,5781 8278,5852 8136,5890 7992,5890 7848,5890 7706,5852 7582,5781 7457,5709 7353,5606 7281,5482 7209,5358 7171,5217 7171,5074 7171,4931 7209,4790 7281,4666 7353,4542 7457,4439 7582,4367 7706,4296 7848,4258 7992,4258 8136,4258 8278,4296 8403,4367 8527,4439 8631,4542 8703,4666 8775,4790 8813,4931 8813,5074 L 8813,5074 Z"/>
        <path fill="none" stroke="rgb(0,0,0)" d="M 8813,5074 C 8813,5217 8775,5358 8703,5482 8631,5606 8527,5709 8403,5781 8278,5852 8136,5890 7992,5890 7848,5890 7706,5852 7582,5781 7457,5709 7353,5606 7281,5482 7209,5358 7171,5217 7171,5074 7171,4931 7209,4790 7281,4666 7353,4542 7457,4439 7582,4367 7706,4296 7848,4258 7992,4258 8136,4258 8278,4296 8403,4367 8527,4439 8631,4542 8703,4666 8775,4790 8813,4931 8813,5074 L 8813,5074 Z"/>
       </g>
      </g>
      <g class="com.sun.star.drawing.CustomShape">
       <g id="id4">
        <rect class="BoundingBox" stroke="none" fill="none" x="7170" y="6705" width="1645" height="1634"/>
        <path fill="rgb(255,128,0)" stroke="none" d="M 8813,7522 C 8813,7665 8775,7805 8703,7929 8631,8053 8527,8156 8402,8228 8278,8299 8136,8337 7992,8337 7848,8337 7706,8299 7581,8228 7457,8156 7353,8053 7281,7929 7209,7805 7171,7665 7171,7522 7171,7378 7209,7238 7281,7114 7353,6990 7457,6887 7581,6815 7706,6744 7848,6706 7992,6706 8136,6706 8278,6744 8402,6815 8527,6887 8631,6990 8703,7114 8775,7238 8813,7378 8813,7521 L 8813,7522 Z"/>
        <path fill="none" stroke="rgb(0,0,0)" d="M 8813,7522 C 8813,7665 8775,7805 8703,7929 8631,8053 8527,8156 8402,8228 8278,8299 8136,8337 7992,8337 7848,8337 7706,8299 7581,8228 7457,8156 7353,8053 7281,7929 7209,7805 7171,7665 7171,7522 7171,7378 7209,7238 7281,7114 7353,6990 7457,6887 7581,6815 7706,6744 7848,6706 7992,6706 8136,6706 8278,6744 8402,6815 8527,6887 8631,6990 8703,7114 8775,7238 8813,7378 8813,7521 L 8813,7522 Z"/>
       </g>
      </g>
      <g class="com.sun.star.drawing.CustomShape">
       <g id="id5">
        <rect class="BoundingBox" stroke="none" fill="none" x="7170" y="9149" width="1645" height="1637"/>
        <path fill="rgb(255,128,0)" stroke="none" d="M 8813,9967 C 8813,10110 8775,10251 8703,10375 8631,10500 8527,10603 8402,10675 8278,10746 8136,10784 7992,10784 7848,10784 7706,10746 7581,10675 7457,10603 7353,10500 7281,10375 7209,10251 7171,10110 7171,9967 7171,9824 7209,9683 7281,9558 7353,9434 7457,9331 7581,9259 7706,9188 7848,9150 7992,9150 8136,9150 8278,9188 8402,9259 8527,9331 8631,9434 8703,9558 8775,9683 8813,9824 8813,9967 L 8813,9967 Z"/>
        <path fill="none" stroke="rgb(0,0,0)" d="M 8813,9967 C 8813,10110 8775,10251 8703,10375 8631,10500 8527,10603 8402,10675 8278,10746 8136,10784 7992,10784 7848,10784 7706,10746 7581,10675 7457,10603 7353,10500 7281,10375 7209,10251 7171,10110 7171,9967 7171,9824 7209,9683 7281,9558 7353,9434 7457,9331 7581,9259 7706,9188 7848,9150 7992,9150 8136,9150 8278,9188 8402,9259 8527,9331 8631,9434 8703,9558 8775,9683 8813,9824 8813,9967 Z"/>
       </g>
      </g>
      <g class="com.sun.star.drawing.CustomShape">
       <g id="id6">
        <rect class="BoundingBox" stroke="none" fill="none" x="2254" y="10372" width="1643" height="1635"/>
        <path fill="rgb(52,101,164)" stroke="none" d="M 3895,11189 C 3895,11332 3857,11473 3785,11597 3713,11721 3610,11824 3485,11896 3360,11967 3219,12005 3075,12005 2931,12005 2790,11967 2665,11896 2540,11824 2437,11721 2365,11597 2293,11473 2255,11332 2255,11189 2255,11046 2293,10905 2365,10781 2437,10657 2540,10554 2665,10482 2790,10411 2931,10373 3075,10373 3219,10373 3360,10411 3485,10482 3610,10554 3713,10657 3785,10781 3857,10905 3895,11046 3895,11189 L 3895,11189 Z"/>
        <path fill="none" stroke="rgb(0,0,0)" d="M 3895,11189 C 3895,11332 3857,11473 3785,11597 3713,11721 3610,11824 3485,11896 3360,11967 3219,12005 3075,12005 2931,12005 2790,11967 2665,11896 2540,11824 2437,11721 2365,11597 2293,11473 2255,11332 2255,11189 2255,11046 2293,10905 2365,10781 2437,10657 2540,10554 2665,10482 2790,10411 2931,10373 3075,10373 3219,10373 3360,10411 3485,10482 3610,10554 3713,10657 3785,10781 3857,10905 3895,11046 3895,11189 Z"/>
       </g>
      </g>
      <g class="com.sun.star.drawing.CustomShape">
       <g id="id7">
        <rect class="BoundingBox" stroke="none" fill="none" x="16184" y="5477" width="1643" height="1637"/>
        <path fill="rgb(22,130,83)" stroke="none" d="M 17825,6295 C 17825,6438 17787,6579 17715,6703 17643,6828 17540,6931 17415,7003 17290,7074 17149,7112 17005,7112 16861,7112 16720,7074 16595,7003 16470,6931 16367,6828 16295,6703 16223,6579 16185,6438 16185,6295 16185,6152 16223,6011 16295,5886 16367,5762 16470,5659 16595,5587 16720,5516 16861,5478 17005,5478 17149,5478 17290,5516 17415,5587 17540,5659 17643,5762 17715,5886 17787,6011 17825,6152 17825,6295 L 17825,6295 Z"/>
        <path fill="none" stroke="rgb(0,0,0)" d="M 17825,6295 C 17825,6438 17787,6579 17715,6703 17643,6828 17540,6931 17415,7003 17290,7074 17149,7112 17005,7112 16861,7112 16720,7074 16595,7003 16470,6931 16367,6828 16295,6703 16223,6579 16185,6438 16185,6295 16185,6152 16223,6011 16295,5886 16367,5762 16470,5659 16595,5587 16720,5516 16861,5478 17005,5478 17149,5478 17290,5516 17415,5587 17540,5659 17643,5762 17715,5886 17787,6011 17825,6152 17825,6295 L 17825,6295 Z"/>
       </g>
      </g>
      <g class="com.sun.star.drawing.CustomShape">
       <g id="id8">
        <rect class="BoundingBox" stroke="none" fill="none" x="16184" y="7927" width="1643" height="1634"/>
        <path fill="rgb(22,130,83)" stroke="none" d="M 17825,8744 C 17825,8887 17787,9027 17715,9151 17643,9275 17540,9378 17415,9450 17290,9521 17149,9559 17005,9559 16861,9559 16720,9521 16595,9450 16470,9378 16367,9275 16295,9151 16223,9027 16185,8887 16185,8744 16185,8600 16223,8460 16295,8336 16367,8212 16470,8109 16595,8037 16720,7966 16861,7928 17005,7928 17149,7928 17290,7966 17415,8037 17540,8109 17643,8212 17715,8336 17787,8460 17825,8600 17825,8744 L 17825,8744 Z"/>
        <path fill="none" stroke="rgb(0,0,0)" d="M 17825,8744 C 17825,8887 17787,9027 17715,9151 17643,9275 17540,9378 17415,9450 17290,9521 17149,9559 17005,9559 16861,9559 16720,9521 16595,9450 16470,9378 16367,9275 16295,9151 16223,9027 16185,8887 16185,8744 16185,8600 16223,8460 16295,8336 16367,8212 16470,8109 16595,8037 16720,7966 16861,7928 17005,7928 17149,7928 17290,7966 17415,8037 17540,8109 17643,8212 17715,8336 17787,8460 17825,8600 17825,8744 Z"/>
       </g>
      </g>
      <g class="com.sun.star.drawing.CustomShape">
       <g id="id9">
        <rect class="BoundingBox" stroke="none" fill="none" x="2254" y="7927" width="1643" height="1634"/>
        <path fill="rgb(52,101,164)" stroke="none" d="M 3895,8744 C 3895,8887 3857,9027 3785,9151 3713,9275 3610,9378 3485,9450 3360,9521 3219,9559 3075,9559 2931,9559 2790,9521 2665,9450 2540,9378 2437,9275 2365,9151 2293,9027 2255,8887 2255,8744 2255,8600 2293,8460 2365,8336 2437,8212 2540,8109 2665,8037 2790,7966 2931,7928 3075,7928 3219,7928 3360,7966 3485,8037 3610,8109 3713,8212 3785,8336 3857,8460 3895,8600 3895,8744 L 3895,8744 Z"/>
        <path fill="none" stroke="rgb(0,0,0)" d="M 3895,8744 C 3895,8887 3857,9027 3785,9151 3713,9275 3610,9378 3485,9450 3360,9521 3219,9559 3075,9559 2931,9559 2790,9521 2665,9450 2540,9378 2437,9275 2365,9151 2293,9027 2255,8887 2255,8744 2255,8600 2293,8460 2365,8336 2437,8212 2540,8109 2665,8037 2790,7966 2931,7928 3075,7928 3219,7928 3360,7966 3485,8037 3610,8109 3713,8212 3785,8336 3857,8460 3895,8600 3895,8744 Z"/>
       </g>
      </g>
      <g class="com.sun.star.drawing.CustomShape">
       <g id="id10">
        <rect class="BoundingBox" stroke="none" fill="none" x="2254" y="5477" width="1643" height="1637"/>
        <path fill="rgb(52,101,164)" stroke="none" d="M 3895,6295 C 3895,6438 3857,6579 3785,6703 3713,6828 3610,6931 3485,7003 3360,7074 3219,7112 3075,7112 2931,7112 2790,7074 2665,7003 2540,6931 2437,6828 2365,6703 2293,6579 2255,6438 2255,6295 2255,6152 2293,6011 2365,5886 2437,5762 2540,5659 2665,5587 2790,5516 2931,5478 3075,5478 3219,5478 3360,5516 3485,5587 3610,5659 3713,5762 3785,5886 3857,6011 3895,6152 3895,6295 L 3895,6295 Z"/>
        <path fill="none" stroke="rgb(0,0,0)" d="M 3895,6295 C 3895,6438 3857,6579 3785,6703 3713,6828 3610,6931 3485,7003 3360,7074 3219,7112 3075,7112 2931,7112 2790,7074 2665,7003 2540,6931 2437,6828 2365,6703 2293,6579 2255,6438 2255,6295 2255,6152 2293,6011 2365,5886 2437,5762 2540,5659 2665,5587 2790,5516 2931,5478 3075,5478 3219,5478 3360,5516 3485,5587 3610,5659 3713,5762 3785,5886 3857,6011 3895,6152 3895,6295 L 3895,6295 Z"/>
       </g>
      </g>
      <g class="com.sun.star.drawing.CustomShape">
       <g id="id11">
        <rect class="BoundingBox" stroke="none" fill="none" x="2254" y="3034" width="1643" height="1634"/>
        <path fill="rgb(52,101,164)" stroke="none" d="M 3895,3851 C 3895,3994 3857,4134 3785,4258 3713,4382 3610,4485 3485,4557 3360,4628 3219,4666 3075,4666 2931,4666 2790,4628 2665,4557 2540,4485 2437,4382 2365,4258 2293,4134 2255,3994 2255,3851 2255,3707 2293,3567 2365,3443 2437,3319 2540,3216 2665,3144 2790,3073 2931,3035 3075,3035 3219,3035 3360,3073 3485,3144 3610,3216 3713,3319 3785,3443 3857,3567 3895,3707 3895,3850 L 3895,3851 Z"/>
        <path fill="none" stroke="rgb(0,0,0)" d="M 3895,3851 C 3895,3994 3857,4134 3785,4258 3713,4382 3610,4485 3485,4557 3360,4628 3219,4666 3075,4666 2931,4666 2790,4628 2665,4557 2540,4485 2437,4382 2365,4258 2293,4134 2255,3994 2255,3851 2255,3707 2293,3567 2365,3443 2437,3319 2540,3216 2665,3144 2790,3073 2931,3035 3075,3035 3219,3035 3360,3073 3485,3144 3610,3216 3713,3319 3785,3443 3857,3567 3895,3707 3895,3850 L 3895,3851 Z"/>
       </g>
      </g>
      <g class="com.sun.star.drawing.CustomShape">
       <g id="id12">
        <rect class="BoundingBox" stroke="none" fill="none" x="11675" y="4257" width="1643" height="1635"/>
        <path fill="rgb(255,128,0)" stroke="none" d="M 13316,5074 C 13316,5217 13278,5358 13206,5482 13134,5606 13031,5709 12906,5781 12781,5852 12640,5890 12496,5890 12352,5890 12211,5852 12086,5781 11961,5709 11858,5606 11786,5482 11714,5358 11676,5217 11676,5074 11676,4931 11714,4790 11786,4666 11858,4542 11961,4439 12086,4367 12211,4296 12352,4258 12496,4258 12640,4258 12781,4296 12906,4367 13031,4439 13134,4542 13206,4666 13278,4790 13316,4931 13316,5074 L 13316,5074 Z"/>
        <path fill="none" stroke="rgb(0,0,0)" d="M 13316,5074 C 13316,5217 13278,5358 13206,5482 13134,5606 13031,5709 12906,5781 12781,5852 12640,5890 12496,5890 12352,5890 12211,5852 12086,5781 11961,5709 11858,5606 11786,5482 11714,5358 11676,5217 11676,5074 11676,4931 11714,4790 11786,4666 11858,4542 11961,4439 12086,4367 12211,4296 12352,4258 12496,4258 12640,4258 12781,4296 12906,4367 13031,4439 13134,4542 13206,4666 13278,4790 13316,4931 13316,5074 L 13316,5074 Z"/>
       </g>
      </g>
      <g class="com.sun.star.drawing.CustomShape">
       <g id="id13">
        <rect class="BoundingBox" stroke="none" fill="none" x="11675" y="6705" width="1643" height="1634"/>
        <path fill="rgb(255,128,0)" stroke="none" d="M 13316,7522 C 13316,7665 13278,7805 13206,7929 13134,8053 13031,8156 12906,8228 12781,8299 12640,8337 12496,8337 12352,8337 12211,8299 12086,8228 11961,8156 11858,8053 11786,7929 11714,7805 11676,7665 11676,7522 11676,7378 11714,7238 11786,7114 11858,6990 11961,6887 12086,6815 12211,6744 12352,6706 12496,6706 12640,6706 12781,6744 12906,6815 13031,6887 13134,6990 13206,7114 13278,7238 13316,7378 13316,7521 L 13316,7522 Z"/>
        <path fill="none" stroke="rgb(0,0,0)" d="M 13316,7522 C 13316,7665 13278,7805 13206,7929 13134,8053 13031,8156 12906,8228 12781,8299 12640,8337 12496,8337 12352,8337 12211,8299 12086,8228 11961,8156 11858,8053 11786,7929 11714,7805 11676,7665 11676,7522 11676,7378 11714,7238 11786,7114 11858,6990 11961,6887 12086,6815 12211,6744 12352,6706 12496,6706 12640,6706 12781,6744 12906,6815 13031,6887 13134,6990 13206,7114 13278,7238 13316,7378 13316,7521 L 13316,7522 Z"/>
       </g>
      </g>
      <g class="com.sun.star.drawing.CustomShape">
       <g id="id14">
        <rect class="BoundingBox" stroke="none" fill="none" x="11675" y="9149" width="1643" height="1637"/>
        <path fill="rgb(255,128,0)" stroke="none" d="M 13316,9967 C 13316,10110 13278,10251 13206,10375 13134,10500 13031,10603 12906,10675 12781,10746 12640,10784 12496,10784 12352,10784 12211,10746 12086,10675 11961,10603 11858,10500 11786,10375 11714,10251 11676,10110 11676,9967 11676,9824 11714,9683 11786,9558 11858,9434 11961,9331 12086,9259 12211,9188 12352,9150 12496,9150 12640,9150 12781,9188 12906,9259 13031,9331 13134,9434 13206,9558 13278,9683 13316,9824 13316,9967 L 13316,9967 Z"/>
        <path fill="none" stroke="rgb(0,0,0)" d="M 13316,9967 C 13316,10110 13278,10251 13206,10375 13134,10500 13031,10603 12906,10675 12781,10746 12640,10784 12496,10784 12352,10784 12211,10746 12086,10675 11961,10603 11858,10500 11786,10375 11714,10251 11676,10110 11676,9967 11676,9824 11714,9683 11786,9558 11858,9434 11961,9331 12086,9259 12211,9188 12352,9150 12496,9150 12640,9150 12781,9188 12906,9259 13031,9331 13134,9434 13206,9558 13278,9683 13316,9824 13316,9967 Z"/>
       </g>
      </g>
      <g class="com.sun.star.drawing.LineShape">
       <g id="id15">
        <rect class="BoundingBox" stroke="none" fill="none" x="3894" y="3848" width="3286" height="1021"/>
        <path fill="none" stroke="rgb(17,17,17)" d="M 3895,3849 L 6910,4730"/>
        <path fill="rgb(17,17,17)" stroke="none" d="M 6933,4580 L 7179,4808 6849,4868 6933,4580 Z"/>
       </g>
      </g>
      <g class="com.sun.star.drawing.LineShape">
       <g id="id16">
        <rect class="BoundingBox" stroke="none" fill="none" x="3894" y="5037" width="3279" height="1260"/>
        <path fill="none" stroke="rgb(17,17,17)" d="M 3895,6295 L 6910,5171"/>
        <path fill="rgb(17,17,17)" stroke="none" d="M 6838,5037 L 7172,5073 6943,5318 6838,5037 Z"/>
       </g>
      </g>
      <g class="com.sun.star.drawing.LineShape">
       <g id="id17">
        <rect class="BoundingBox" stroke="none" fill="none" x="3894" y="5372" width="3336" height="3374"/>
        <path fill="none" stroke="rgb(17,17,17)" d="M 3895,8744 L 7032,5571"/>
        <path fill="rgb(17,17,17)" stroke="none" d="M 6911,5480 L 7229,5372 7125,5691 6911,5480 Z"/>
       </g>
      </g>
      <g class="com.sun.star.drawing.LineShape">
       <g id="id18">
        <rect class="BoundingBox" stroke="none" fill="none" x="3894" y="5664" width="3511" height="5528"/>
        <path fill="none" stroke="rgb(17,17,17)" d="M 3895,11190 L 7254,5900"/>
        <path fill="rgb(17,17,17)" stroke="none" d="M 7117,5837 L 7404,5664 7370,5998 7117,5837 Z"/>
       </g>
      </g>
      <g class="com.sun.star.drawing.LineShape">
       <g id="id19">
        <rect class="BoundingBox" stroke="none" fill="none" x="3894" y="3848" width="3345" height="3330"/>
        <path fill="none" stroke="rgb(17,17,17)" d="M 3895,3849 L 7040,6979"/>
        <path fill="rgb(17,17,17)" stroke="none" d="M 7131,6859 L 7238,7177 6920,7072 7131,6859 Z"/>
       </g>
      </g>
      <g class="com.sun.star.drawing.LineShape">
       <g id="id20">
        <rect class="BoundingBox" stroke="none" fill="none" x="3894" y="6295" width="3279" height="1262"/>
        <path fill="none" stroke="rgb(17,17,17)" d="M 3895,6296 L 6910,7422"/>
        <path fill="rgb(17,17,17)" stroke="none" d="M 6943,7275 L 7172,7520 6838,7556 6943,7275 Z"/>
       </g>
      </g>
      <g class="com.sun.star.drawing.LineShape">
       <g id="id21">
        <rect class="BoundingBox" stroke="none" fill="none" x="3894" y="7748" width="3315" height="999"/>
        <path fill="none" stroke="rgb(17,17,17)" d="M 3895,8745 L 6939,7887"/>
        <path fill="rgb(17,17,17)" stroke="none" d="M 6879,7748 L 7208,7811 6960,8037 6879,7748 Z"/>
       </g>
      </g>
      <g class="com.sun.star.drawing.LineShape">
       <g id="id22">
        <rect class="BoundingBox" stroke="none" fill="none" x="3894" y="8081" width="3433" height="3111"/>
        <path fill="none" stroke="rgb(17,17,17)" d="M 3895,11190 L 7119,8269"/>
        <path fill="rgb(17,17,17)" stroke="none" d="M 7003,8171 L 7326,8081 7204,8394 7003,8171 Z"/>
       </g>
      </g>
      <g class="com.sun.star.drawing.LineShape">
       <g id="id23">
        <rect class="BoundingBox" stroke="none" fill="none" x="3894" y="10210" width="3296" height="982"/>
        <path fill="none" stroke="rgb(17,17,17)" d="M 3895,11190 L 6919,10350"/>
        <path fill="rgb(17,17,17)" stroke="none" d="M 6860,10211 L 7189,10275 6940,10500 6860,10211 Z"/>
       </g>
      </g>
      <g class="com.sun.star.drawing.LineShape">
       <g id="id24">
        <rect class="BoundingBox" stroke="none" fill="none" x="3894" y="8703" width="3208" height="1221"/>
        <path fill="none" stroke="rgb(17,17,17)" d="M 3895,8704 L 6838,9788"/>
        <path fill="rgb(17,17,17)" stroke="none" d="M 6871,9641 L 7101,9885 6768,9922 6871,9641 Z"/>
       </g>
      </g>
      <g class="com.sun.star.drawing.LineShape">
       <g id="id25">
        <rect class="BoundingBox" stroke="none" fill="none" x="3894" y="6319" width="3315" height="3268"/>
        <path fill="none" stroke="rgb(17,17,17)" d="M 3895,6320 L 7009,9389"/>
        <path fill="rgb(17,17,17)" stroke="none" d="M 7100,9269 L 7208,9586 6889,9482 7100,9269 Z"/>
       </g>
      </g>
      <g class="com.sun.star.drawing.LineShape">
       <g id="id26">
        <rect class="BoundingBox" stroke="none" fill="none" x="3894" y="3848" width="3559" height="5438"/>
        <path fill="none" stroke="rgb(17,17,17)" d="M 3895,3849 L 7299,9051"/>
        <path fill="rgb(17,17,17)" stroke="none" d="M 7413,8952 L 7452,9285 7162,9116 7413,8952 Z"/>
       </g>
      </g>
      <g class="com.sun.star.drawing.LineShape">
       <g id="id27">
        <rect class="BoundingBox" stroke="none" fill="none" x="8820" y="4905" width="2919" height="302"/>
        <path fill="none" stroke="rgb(17,17,17)" d="M 8821,5028 L 11458,5056"/>
        <path fill="rgb(17,17,17)" stroke="none" d="M 11440,4906 L 11738,5059 11436,5206 11440,4906 Z"/>
       </g>
      </g>
      <g class="com.sun.star.drawing.LineShape">
       <g id="id28">
        <rect class="BoundingBox" stroke="none" fill="none" x="8789" y="7357" width="2919" height="302"/>
        <path fill="none" stroke="rgb(17,17,17)" d="M 8790,7480 L 11427,7508"/>
        <path fill="rgb(17,17,17)" stroke="none" d="M 11409,7358 L 11707,7511 11405,7658 11409,7358 Z"/>
       </g>
      </g>
      <g class="com.sun.star.drawing.LineShape">
       <g id="id29">
        <rect class="BoundingBox" stroke="none" fill="none" x="8820" y="9855" width="2919" height="302"/>
        <path fill="none" stroke="rgb(17,17,17)" d="M 8821,9978 L 11458,10006"/>
        <path fill="rgb(17,17,17)" stroke="none" d="M 11440,9856 L 11738,10009 11436,10156 11440,9856 Z"/>
       </g>
      </g>
      <g class="com.sun.star.drawing.LineShape">
       <g id="id30">
        <rect class="BoundingBox" stroke="none" fill="none" x="8820" y="7854" width="2919" height="2138"/>
        <path fill="none" stroke="rgb(17,17,17)" d="M 8821,9990 L 11512,8019"/>
        <path fill="rgb(17,17,17)" stroke="none" d="M 11407,7910 L 11738,7854 11585,8152 11407,7910 Z"/>
       </g>
      </g>
      <g class="com.sun.star.drawing.LineShape">
       <g id="id31">
        <rect class="BoundingBox" stroke="none" fill="none" x="8820" y="5785" width="3167" height="4209"/>
        <path fill="none" stroke="rgb(17,17,17)" d="M 8821,9992 L 11818,6009"/>
        <path fill="rgb(17,17,17)" stroke="none" d="M 11686,5935 L 11986,5785 11926,6115 11686,5935 Z"/>
       </g>
      </g>
      <g class="com.sun.star.drawing.LineShape">
       <g id="id32">
        <rect class="BoundingBox" stroke="none" fill="none" x="8789" y="5414" width="2919" height="2079"/>
        <path fill="none" stroke="rgb(17,17,17)" d="M 8790,7491 L 11479,5576"/>
        <path fill="rgb(17,17,17)" stroke="none" d="M 11376,5466 L 11707,5414 11550,5710 11376,5466 Z"/>
       </g>
      </g>
      <g class="com.sun.star.drawing.LineShape">
       <g id="id33">
        <rect class="BoundingBox" stroke="none" fill="none" x="8789" y="7490" width="2919" height="2171"/>
        <path fill="none" stroke="rgb(17,17,17)" d="M 8790,7491 L 11482,9493"/>
        <path fill="rgb(17,17,17)" stroke="none" d="M 11556,9361 L 11707,9660 11377,9601 11556,9361 Z"/>
       </g>
      </g>
      <g class="com.sun.star.drawing.LineShape">
       <g id="id34">
        <rect class="BoundingBox" stroke="none" fill="none" x="8820" y="5038" width="3152" height="4316"/>
        <path fill="none" stroke="rgb(17,17,17)" d="M 8821,5039 L 11806,9127"/>
        <path fill="rgb(17,17,17)" stroke="none" d="M 11915,9022 L 11971,9353 11673,9199 11915,9022 Z"/>
       </g>
      </g>
      <g class="com.sun.star.drawing.LineShape">
       <g id="id35">
        <rect class="BoundingBox" stroke="none" fill="none" x="8820" y="5038" width="2919" height="2138"/>
        <path fill="none" stroke="rgb(17,17,17)" d="M 8821,5039 L 11512,7010"/>
        <path fill="rgb(17,17,17)" stroke="none" d="M 11585,6877 L 11738,7175 11407,7119 11585,6877 Z"/>
       </g>
      </g>
      <g class="com.sun.star.drawing.LineShape">
       <g id="id36">
        <rect class="BoundingBox" stroke="none" fill="none" x="13338" y="5054" width="2856" height="1134"/>
        <path fill="none" stroke="rgb(17,17,17)" d="M 13339,5055 L 15932,6053"/>
        <path fill="rgb(17,17,17)" stroke="none" d="M 15967,5906 L 16193,6154 15859,6186 15967,5906 Z"/>
       </g>
      </g>
      <g class="com.sun.star.drawing.LineShape">
       <g id="id37">
        <rect class="BoundingBox" stroke="none" fill="none" x="13338" y="5076" width="3013" height="3182"/>
        <path fill="none" stroke="rgb(17,17,17)" d="M 13339,5077 L 16157,8054"/>
        <path fill="rgb(17,17,17)" stroke="none" d="M 16252,7936 L 16349,8257 16034,8142 16252,7936 Z"/>
       </g>
      </g>
      <g class="com.sun.star.drawing.LineShape">
       <g id="id38">
        <rect class="BoundingBox" stroke="none" fill="none" x="13353" y="7561" width="2856" height="1134"/>
        <path fill="none" stroke="rgb(17,17,17)" d="M 13354,7562 L 15947,8560"/>
        <path fill="rgb(17,17,17)" stroke="none" d="M 15982,8413 L 16208,8661 15874,8693 15982,8413 Z"/>
       </g>
      </g>
      <g class="com.sun.star.drawing.LineShape">
       <g id="id39">
        <rect class="BoundingBox" stroke="none" fill="none" x="13353" y="6481" width="2841" height="1103"/>
        <path fill="none" stroke="rgb(17,17,17)" d="M 13354,7582 L 15931,6615"/>
        <path fill="rgb(17,17,17)" stroke="none" d="M 15859,6482 L 16193,6517 15965,6763 15859,6482 Z"/>
       </g>
      </g>
      <g class="com.sun.star.drawing.LineShape">
       <g id="id40">
        <rect class="BoundingBox" stroke="none" fill="none" x="13364" y="8920" width="2879" height="998"/>
        <path fill="none" stroke="rgb(17,17,17)" d="M 13365,9916 L 15976,9057"/>
        <path fill="rgb(17,17,17)" stroke="none" d="M 15910,8920 L 16242,8969 16004,9205 15910,8920 Z"/>
       </g>
      </g>
      <g class="com.sun.star.drawing.LineShape">
       <g id="id41">
        <rect class="BoundingBox" stroke="none" fill="none" x="13364" y="6858" width="3001" height="3030"/>
        <path fill="none" stroke="rgb(17,17,17)" d="M 13365,9886 L 16167,7057"/>
        <path fill="rgb(17,17,17)" stroke="none" d="M 16046,6966 L 16364,6858 16259,7177 16046,6966 Z"/>
       </g>
      </g>
     </g>
    </g>
   </g>
  </g>
 </g>
</svg>